<svg width="1079" height="250" viewBox="0 0 1079 250" fill="none" xmlns="http://www.w3.org/2000/svg">
<path d="M238.645 242.284L121.58 210.251L183.461 78.9167L257.865 117.502L238.645 242.284Z" fill="black"></path>
<path d="M117.063 209.085L63.4812 250L64.9372 88.6714L161.472 114.152L117.063 209.085Z" fill="black"></path>
<path d="M163.075 109.493L65.9576 83.8672L177.927 78.9167L163.075 109.493Z" fill="black"></path>
<path d="M120.704 0.435396L66.6854 79.6436L180.693 73.6739L200.058 23.5863L120.704 0.435396Z" fill="black"></path>
<path d="M61.5903 79.3539L60.8623 122.307L0 85.0324L18.6373 0L96.3895 28.1015L61.5903 79.3539Z" fill="black"></path>
<path d="M669.604 27.4062V11.7332H724.671V27.4062H706.598V115.514H687.536V27.4062H669.604Z" fill="black"></path>
<path d="M779.653 94.1933C779.371 98.4292 778.382 102.242 776.405 105.489C772.875 111.843 765.957 116.644 754.237 116.644C747.883 116.644 742.941 115.373 739.411 113.114C732.634 109.16 729.104 102.665 728.821 94.1933V33.0542C728.963 28.9594 729.951 25.147 731.928 21.8995C735.458 15.6867 742.094 10.6036 754.237 10.6036C760.591 10.6036 765.251 12.0155 768.781 14.1335C775.558 18.2283 779.229 24.7235 779.653 33.0542V94.1933ZM754.237 25.4294C749.295 25.4294 747.883 29.383 747.883 33.0542V94.1933C747.883 98.1468 749.436 101.818 754.237 101.818C759.038 101.818 760.591 98.288 760.591 94.1933V33.0542C760.591 29.383 759.179 25.4294 754.237 25.4294Z" fill="black"></path>
<path d="M816.497 101.818C821.298 101.818 822.851 98.288 822.851 94.1933V11.7332H841.912V94.1933C841.63 98.4292 840.642 102.242 838.665 105.489C835.135 111.843 828.216 116.644 816.497 116.644C810.143 116.644 805.201 115.373 801.671 113.114C794.893 109.16 791.363 102.665 791.081 94.1933V11.7332H810.143V94.1933C810.143 98.1468 811.696 101.818 816.497 101.818Z" fill="black"></path>
<path d="M873.087 71.7426V115.514H854.026V11.7332H873.087C895.82 11.7332 905.563 22.0407 905.563 41.6673C905.563 51.9748 902.174 61.2939 894.973 65.2475C902.174 78.8026 903.869 98.8528 907.116 115.514H888.054C882.689 101.253 884.524 79.5086 873.087 71.7426ZM873.087 57.6228C882.971 57.6228 887.207 52.822 887.207 42.2321C887.207 31.6422 883.112 26.8414 873.087 26.8414V57.6228Z" fill="black"></path>
<path d="M916.414 11.7332H935.476V115.514H916.414V11.7332Z" fill="black"></path>
<path d="M972.167 24.5822C967.225 24.7234 965.671 28.8182 965.671 34.8897C965.671 38.4197 967.648 42.0909 970.472 46.0445C973.296 49.998 976.967 54.0928 980.638 58.47C985.016 63.6943 989.534 69.0599 992.782 74.2842C996.17 79.5086 998.43 84.8741 998.43 90.5221C998.43 105.63 991.511 116.644 972.025 116.644C949.151 116.644 944.35 103.795 944.35 86.4273L962.989 85.0153C962.989 92.4989 963.412 102.665 972.025 102.665C977.673 102.665 979.791 97.8644 979.791 91.2281C979.791 85.5801 973.578 78.0966 969.907 73.5782C962.706 65.3887 952.399 54.234 948.586 43.2205C947.457 40.5377 946.892 37.7137 946.892 34.8897C946.892 22.0406 955.081 10.886 971.884 10.6036C983.321 10.4624 989.958 14.2747 993.77 19.7815C997.441 25.4294 998.43 32.3482 998.43 38.1373L979.791 39.5493C979.791 33.7601 978.944 24.5822 972.167 24.5822Z" fill="black"></path>
<path d="M1038.2 115.514C1033.96 92.3577 1029.45 69.3423 1025.35 45.9033H1024.36V115.514H1006.71V11.7332H1030.01L1041.31 59.176L1042.15 64.6827H1042.44L1043.42 59.176L1054.72 11.7332H1078.02V115.514H1060.37V45.9033H1059.24L1058.53 50.2804L1046.39 115.514H1038.2Z" fill="black"></path>
<path d="M297.547 148.963V132.97H353.739V148.963H335.297V238.87H315.845V148.963H297.547Z" fill="black"></path>
<path d="M392.528 192.764H377.399V238.87H357.948V132.97H377.399V176.771H392.528V132.97H411.979V238.87H392.528V192.764Z" fill="black"></path>
<path d="M423.731 132.97H443.182V238.87H423.731V132.97Z" fill="black"></path>
<path d="M474.175 178.788H473.022V238.87H455.3V132.97H472.59C479.362 153.142 486.278 173.025 493.05 193.197H494.202V133.115H511.924V239.015H494.634C487.863 218.843 480.947 198.96 474.175 178.788Z" fill="black"></path>
<path d="M542.652 132.97V169.999H543.372L544.237 168.27L560.374 132.97H579.393L561.527 167.838L581.698 238.87H562.824C558.069 222.877 553.17 206.884 548.704 190.603H548.127C546.398 194.349 544.381 197.807 542.652 201.409V238.87H523.201V132.97H542.652Z" fill="black"></path>
<path d="M600.125 149.995V134.002H656.317V149.995H637.875V239.902H618.424V149.995H600.125Z" fill="black"></path>
<path d="M651.822 239.902L671.705 134.002H695.479L715.506 239.902H696.631L693.029 218.29H674.299L670.696 239.902H651.822ZM684.24 165.7H683.088L682.511 168.438L677.036 201.865H690.292C688.274 189.906 686.401 177.659 684.24 165.7Z" fill="black"></path>
<path d="M740.633 179.82H739.481V239.902H721.759V134.002H739.049C745.82 154.174 752.736 174.057 759.508 194.228H760.661V134.146H778.383V240.046H761.093C754.321 219.875 747.405 199.992 740.633 179.82Z" fill="black"></path>
<path d="M808.814 134.002V171.031H809.534L810.398 169.302L826.536 134.002H845.554L827.688 168.87L847.86 239.902H828.985C824.23 223.909 819.331 207.916 814.865 191.635H814.289C812.56 195.381 810.543 198.839 808.814 202.441V239.902H789.363V134.002H808.814Z" fill="black"></path>
<path d="M301.515 114.869V11.0835H316.483C334.134 11.0835 343.595 13.9076 348.819 21.8151C353.761 29.7226 354.467 42.7134 354.467 63.047C354.467 83.3806 353.761 96.2302 348.819 104.138C343.595 112.045 334.134 114.869 316.483 114.869H301.515ZM320.578 99.6191C327.074 99.6191 330.745 99.0543 332.722 93.9709C333.569 91.5704 334.275 87.8991 334.416 82.9569C334.699 78.0148 334.699 71.3781 334.699 62.9058C334.699 54.4335 334.699 47.7968 334.416 42.8547C334.275 38.0537 333.569 34.3823 332.722 31.8407C330.745 26.8985 327.074 26.3337 320.578 26.3337V99.6191Z" fill="black"></path>
<path d="M366.044 11.0842H385.107V114.87H366.044V11.0842Z" fill="black"></path>
<path d="M422.399 24.7811C417.457 24.7811 416.045 28.7348 416.045 32.4062V94.8189C416.045 98.7726 417.599 102.444 422.399 102.444C427.2 102.444 428.754 98.9138 428.754 94.8189V76.0386H421.129V63.1889H447.816V114.87H436.52L434.12 109.928C430.589 113.458 425.506 116 419.293 116C413.221 116 408.985 114.729 405.737 112.469C399.665 108.516 396.559 102.162 396.983 93.548V32.4062C397.124 28.3112 398.112 24.4987 400.089 21.251C403.619 15.0379 410.256 9.95454 422.399 9.95454C428.754 9.95454 433.414 11.3666 436.944 13.4847C443.721 17.5796 447.393 24.0751 447.816 32.4062V48.3624H428.754V32.4062C428.754 28.7348 427.342 24.7811 422.399 24.7811Z" fill="black"></path>
<path d="M460.29 11.1658H479.352V114.952H460.29V11.1658Z" fill="black"></path>
<path d="M485.679 26.758V11.0842H540.749V26.758H522.675V114.87H503.612V26.758H485.679Z" fill="black"></path>
<path d="M537.506 114.87L556.993 11.0842H580.292L599.919 114.87H581.421L577.891 93.6892H559.534L556.004 114.87H537.506ZM569.278 42.1493H568.148L567.583 44.8322L562.217 77.5918H575.208C573.231 65.8718 571.396 53.8694 569.278 42.1493Z" fill="black"></path>
<path d="M607.541 11.0842H626.604V100.749H651.738V114.87H607.541V11.0842Z" fill="black"></path>
</svg>