<svg width="282" height="266" viewBox="0 0 282 266" fill="none" xmlns="http://www.w3.org/2000/svg">
<rect x="2.02707" y="-2.02707" width="194.835" height="194.835" rx="12.7054" transform="matrix(1 0 0 -1 0 194.835)" stroke="#A774D4" stroke-opacity="0.3" stroke-width="4.05414"></rect>
<rect x="2.02707" y="-2.02707" width="194.835" height="194.835" rx="12.7054" transform="matrix(1 0 0 -1 83.1094 261.728)" stroke="#A774D4" stroke-opacity="0.5" stroke-width="4.05414"></rect>
<rect x="2.02707" y="-2.02707" width="194.835" height="194.835" rx="12.7054" transform="matrix(1 0 0 -1 46.623 223.213)" stroke="#6A2D9E" stroke-opacity="0.8" stroke-width="4.05414"></rect>
<path d="M88.6307 90.7995L128.565 84.1538C135.812 95.1562 140.923 107.266 143.898 120.484C151.374 109.777 157.019 102.282 160.833 97.9991C165.944 92.2394 170.139 88.5105 173.42 86.8121C176.776 85.0399 180.323 84.1538 184.061 84.1538C188.257 84.1538 191.461 85.2614 193.673 87.4767C195.961 89.6919 197.106 92.6825 197.106 96.4484C197.106 99.9928 195.961 102.91 193.673 105.199C191.461 107.414 188.676 108.521 185.32 108.521C182.879 108.521 180.056 108.115 176.852 107.303C173.725 106.417 171.551 105.974 170.33 105.974C167.126 105.974 164.075 107.082 161.176 109.297C157.209 112.324 152.327 118.786 146.53 128.68C153.014 150.833 158.201 164.346 162.092 169.219C164.38 172.099 166.707 173.539 169.072 173.539C171.055 173.539 172.771 173.059 174.221 172.099C176.433 170.548 179.827 166.672 184.405 160.469L188.524 162.795C181.811 173.281 175.25 180.665 168.843 184.947C163.961 188.27 159.155 189.932 154.425 189.932C149.543 189.932 145.462 188.898 142.182 186.83C138.978 184.689 136.117 181.255 133.6 176.53C131.082 171.73 128.107 164.087 124.675 153.602C115.749 164.604 108.731 172.653 103.62 177.748C98.5858 182.769 94.3901 186.055 91.0336 187.606C87.6772 189.156 84.0919 189.932 80.2777 189.932C76.311 189.932 73.1833 188.824 70.8948 186.609C68.5301 184.394 67.3477 181.514 67.3477 177.97C67.3477 174.204 68.6063 171.102 71.1237 168.665C73.641 166.229 76.8449 165.01 80.7354 165.01C82.795 165.01 85.1217 165.601 87.7153 166.782C91.5295 168.555 94.2758 169.441 95.9539 169.441C98.1661 169.441 100.15 168.998 101.904 168.111C104.192 167.004 107.091 164.604 110.6 160.912C112.736 158.623 116.665 153.75 122.386 146.291C115.063 120.004 109.342 104.276 105.222 99.1067C102.629 95.7838 99.3486 94.1224 95.3818 94.1224C93.3222 94.1224 90.8049 94.4178 87.8297 95.0085L88.6307 90.7995ZM218.635 161.909C222.582 161.909 225.929 163.238 228.676 165.896C231.422 168.555 232.795 171.767 232.795 175.533C232.795 179.299 231.393 182.511 228.59 185.169C225.844 187.827 222.525 189.156 218.635 189.156C214.744 189.156 211.426 187.827 208.68 185.169C205.934 182.511 204.56 179.299 204.56 175.533C204.56 171.767 205.934 168.555 208.68 165.896C211.426 163.238 214.744 161.909 218.635 161.909Z" fill="#6A2D9E"></path>
</svg>